<svg xmlns="http://www.w3.org/2000/svg" viewBox="0 0 1440 320"><path fill="#F9A826" fill-opacity="1" d="M0,256L21.8,229.3C43.6,203,87,149,131,144C174.5,139,218,181,262,176C305.5,171,349,117,393,106.7C436.4,96,480,128,524,160C567.3,192,611,224,655,229.3C698.2,235,742,213,785,218.7C829.1,224,873,256,916,272C960,288,1004,288,1047,277.3C1090.9,267,1135,245,1178,234.7C1221.8,224,1265,224,1309,234.7C1352.7,245,1396,267,1418,277.3L1440,288L1440,0L1418.2,0C1396.4,0,1353,0,1309,0C1265.5,0,1222,0,1178,0C1134.5,0,1091,0,1047,0C1003.6,0,960,0,916,0C872.7,0,829,0,785,0C741.8,0,698,0,655,0C610.9,0,567,0,524,0C480,0,436,0,393,0C349.1,0,305,0,262,0C218.2,0,175,0,131,0C87.3,0,44,0,22,0L0,0Z"></path></svg>